<svg width="194" height="28" viewBox="0 0 194 28" fill="none" xmlns="http://www.w3.org/2000/svg">
<path d="M14.3 0.999999H19.7V16.3C19.7 18.4 19.22 19.93 18.26 20.89C17.32 21.83 15.8 22.3 13.7 22.3H6.8C4.7 22.3 3.17 21.83 2.21 20.89C1.27 19.93 0.8 18.4 0.8 16.3V0.999999H6.2V16.3C6.2 17.5 6.8 18.1 8 18.1H12.5C13.7 18.1 14.3 17.5 14.3 16.3V0.999999ZM35.9 5.05C35.32 5.01 34.55 4.95 33.59 4.87C32.63 4.79 31.8 4.75 31.1 4.75C30.4 4.75 29.95 4.85 29.75 5.05C29.55 5.25 29.45 5.5 29.45 5.8V7.3H34.4V11.35H29.45V22H24.2V11.35H22.1V7.3H24.2V5.2C24.2 3.84 24.61 2.75 25.43 1.93C26.25 1.11 27.34 0.699999 28.7 0.699999C29.92 0.699999 31.21 0.739999 32.57 0.819999C33.93 0.899999 35.04 0.959999 35.9 0.999999V5.05ZM41.8977 18.1C42.9577 18.1 44.1577 17.9 45.4977 17.5V15.7H41.1477C40.8477 15.7 40.5977 15.8 40.3977 16C40.1977 16.2 40.0977 16.45 40.0977 16.75V17.05C40.0977 17.35 40.1977 17.6 40.3977 17.8C40.5977 18 40.8477 18.1 41.1477 18.1H41.8977ZM36.3477 6.4C40.0077 6 43.3077 5.8 46.2477 5.8C47.6077 5.8 48.6977 6.21 49.5177 7.03C50.3377 7.85 50.7477 8.94 50.7477 10.3V22H46.0977L45.7977 20.5C44.8577 21.12 43.8877 21.58 42.8877 21.88C41.9077 22.16 41.0777 22.3 40.3977 22.3H39.3477C37.9877 22.3 36.8977 21.89 36.0777 21.07C35.2577 20.25 34.8477 19.16 34.8477 17.8V16.45C34.8477 15.09 35.2577 14 36.0777 13.18C36.8977 12.36 37.9877 11.95 39.3477 11.95H45.4977V10.75C45.4977 10.45 45.3977 10.2 45.1977 10C44.9977 9.8 44.7477 9.7 44.4477 9.7C43.1477 9.7 41.7077 9.76 40.1277 9.88C38.5677 10 37.3077 10.09 36.3477 10.15V6.4ZM64.0895 5.8C65.7095 5.8 66.9595 6.4 67.8395 7.6C68.7595 6.98 69.7495 6.53 70.8095 6.25C71.8895 5.95 72.8495 5.8 73.6895 5.8H73.9895C75.3495 5.8 76.4395 6.21 77.2595 7.03C78.0795 7.85 78.4895 8.94 78.4895 10.3V22H73.2395V11.2C73.2395 10.9 73.1395 10.65 72.9395 10.45C72.7395 10.25 72.4895 10.15 72.1895 10.15H72.0395C71.1395 10.15 69.9895 10.35 68.5895 10.75V22H63.3395V11.2C63.3395 10.9 63.2395 10.65 63.0395 10.45C62.8395 10.25 62.5895 10.15 62.2895 10.15H62.1395C61.2395 10.15 60.0895 10.35 58.6895 10.75V22H53.4395V6.1H58.0895L58.3895 7.6C59.3295 6.98 60.2895 6.53 61.2695 6.25C62.2695 5.95 63.1095 5.8 63.7895 5.8H64.0895ZM98.1336 22H81.4836V0.999999H98.1336V5.2H86.8836V9.25H95.7336V13.45H86.8836V17.8H98.1336V22ZM109.527 6.1H115.377L110.577 14.05L115.527 22H109.677L106.977 17.2L104.277 22H98.4266L103.377 14.05L98.5766 6.1H104.427L106.977 10.9L109.527 6.1ZM125.571 10.15C124.511 10.15 123.311 10.35 121.971 10.75V17.95H126.471C127.271 17.95 127.671 17.55 127.671 16.75V11.2C127.671 10.9 127.571 10.65 127.371 10.45C127.171 10.25 126.921 10.15 126.621 10.15H125.571ZM121.971 22V27.1H116.721V6.1H121.371L121.671 7.6C122.611 6.98 123.571 6.53 124.551 6.25C125.551 5.95 126.391 5.8 127.071 5.8H128.421C129.781 5.8 130.871 6.21 131.691 7.03C132.511 7.85 132.921 8.94 132.921 10.3V17.2C132.921 18.7 132.491 19.88 131.631 20.74C130.791 21.58 129.621 22 128.121 22H121.971ZM143.717 22C142.377 22.2 141.097 22.3 139.877 22.3C138.677 22.3 137.667 21.89 136.847 21.07C136.027 20.25 135.617 19.16 135.617 17.8V0.999999H140.867V17.05C140.867 17.35 140.967 17.6 141.167 17.8C141.367 18 141.617 18.1 141.917 18.1H143.717V22ZM162.013 17.5C162.013 19 161.583 20.18 160.723 21.04C159.883 21.88 158.712 22.3 157.213 22.3H150.313C148.813 22.3 147.633 21.88 146.773 21.04C145.933 20.18 145.513 19 145.513 17.5V10.6C145.513 9.1 145.933 7.93 146.773 7.09C147.633 6.23 148.813 5.8 150.313 5.8H157.213C158.712 5.8 159.883 6.23 160.723 7.09C161.583 7.93 162.013 9.1 162.013 10.6V17.5ZM156.763 11.05C156.763 10.25 156.363 9.85 155.563 9.85H151.963C151.163 9.85 150.763 10.25 150.763 11.05V17.05C150.763 17.85 151.163 18.25 151.963 18.25H155.563C156.363 18.25 156.763 17.85 156.763 17.05V11.05ZM173.859 10.45C172.599 10.45 171.299 10.75 169.959 11.35V22H164.709V6.1H169.359L169.659 8.05C171.379 6.55 173.179 5.8 175.059 5.8H176.409V10.45H173.859ZM184.072 9.55C183.272 9.55 182.872 9.95 182.872 10.75V12.4H187.972V10.75C187.972 9.95 187.572 9.55 186.772 9.55H184.072ZM192.622 21.7C188.762 22.1 185.262 22.3 182.122 22.3C180.762 22.3 179.672 21.89 178.852 21.07C178.032 20.25 177.622 19.16 177.622 17.8V10.6C177.622 9.1 178.042 7.93 178.882 7.09C179.742 6.23 180.922 5.8 182.422 5.8H188.422C189.922 5.8 191.092 6.23 191.932 7.09C192.792 7.93 193.222 9.1 193.222 10.6V16.15H182.872V17.35C182.872 17.65 182.972 17.9 183.172 18.1C183.372 18.3 183.622 18.4 183.922 18.4C185.902 18.4 188.802 18.25 192.622 17.95V21.7Z" fill="#00186D"/>
</svg>
